<mxfile host="app.diagrams.net" modified="2024-01-22T20:04:38.026Z" agent="Mozilla/5.0 (Windows NT 10.0; Win64; x64) AppleWebKit/537.36 (KHTML, like Gecko) Chrome/120.0.0.0 Safari/537.36" etag="i1_5kgzRoBUhhb7mM1B9" version="22.1.21" type="github">
  <diagram name="Page-1" id="ULvkepZrze767ZOHFqph">
    <mxGraphModel dx="3532" dy="766" grid="1" gridSize="10" guides="1" tooltips="1" connect="1" arrows="1" fold="1" page="1" pageScale="1" pageWidth="827" pageHeight="1169" math="0" shadow="0">
      <root>
        <mxCell id="0" />
        <mxCell id="1" parent="0" />
        <mxCell id="i_-3oUF3Cd-55Z9TrqPK-58" value="" style="rounded=0;whiteSpace=wrap;html=1;fillColor=none;movable=1;resizable=1;rotatable=1;deletable=1;editable=1;locked=0;connectable=1;" vertex="1" parent="1">
          <mxGeometry x="-840" y="1160" width="827" height="680" as="geometry" />
        </mxCell>
        <mxCell id="i_-3oUF3Cd-55Z9TrqPK-59" value="Academic Supervisor" style="shape=umlActor;verticalLabelPosition=bottom;verticalAlign=top;html=1;outlineConnect=0;" vertex="1" parent="1">
          <mxGeometry x="270" y="1377" width="30" height="60" as="geometry" />
        </mxCell>
        <mxCell id="i_-3oUF3Cd-55Z9TrqPK-35" value="login" style="ellipse;whiteSpace=wrap;html=1;fontSize=16;fontStyle=1;flipV=0;" vertex="1" parent="1">
          <mxGeometry x="-300" y="1446" width="140" height="70" as="geometry" />
        </mxCell>
        <mxCell id="i_-3oUF3Cd-55Z9TrqPK-37" value="Sign up" style="ellipse;whiteSpace=wrap;html=1;fontSize=16;fontStyle=1;flipV=0;" vertex="1" parent="1">
          <mxGeometry x="-300" y="1323" width="140" height="70" as="geometry" />
        </mxCell>
        <mxCell id="i_-3oUF3Cd-55Z9TrqPK-39" value="&lt;span data-lucid-content=&quot;{&amp;quot;t&amp;quot;:&amp;quot;Send Resume to Acadamic Manager&amp;quot;,&amp;quot;m&amp;quot;:[]}&quot; data-lucid-type=&quot;application/vnd.lucid.text&quot; style=&quot;font-size: 16px;&quot;&gt;&lt;span style=&quot;font-size: 16px;&quot;&gt;Send Resume&lt;/span&gt;&lt;/span&gt;" style="ellipse;whiteSpace=wrap;html=1;fontSize=16;fontStyle=1;flipV=0;" vertex="1" parent="1">
          <mxGeometry x="-300" y="1200" width="140" height="70" as="geometry" />
        </mxCell>
        <mxCell id="i_-3oUF3Cd-55Z9TrqPK-40" value="logout" style="ellipse;whiteSpace=wrap;html=1;fontSize=16;fontStyle=1;flipV=0;" vertex="1" parent="1">
          <mxGeometry x="-300" y="1569" width="140" height="70" as="geometry" />
        </mxCell>
        <mxCell id="i_-3oUF3Cd-55Z9TrqPK-64" value="Academic Manager" style="shape=umlActor;verticalLabelPosition=bottom;verticalAlign=top;html=1;outlineConnect=0;" vertex="1" parent="1">
          <mxGeometry x="270" y="1283" width="30" height="60" as="geometry" />
        </mxCell>
        <mxCell id="i_-3oUF3Cd-55Z9TrqPK-65" value="Manager" style="shape=umlActor;verticalLabelPosition=bottom;verticalAlign=top;html=1;outlineConnect=0;" vertex="1" parent="1">
          <mxGeometry x="270" y="1190" width="30" height="60" as="geometry" />
        </mxCell>
        <mxCell id="i_-3oUF3Cd-55Z9TrqPK-67" value="" style="group" vertex="1" connectable="0" parent="1">
          <mxGeometry x="190" y="1470" width="190" height="60" as="geometry" />
        </mxCell>
        <mxCell id="i_-3oUF3Cd-55Z9TrqPK-61" value="Instructor" style="shape=umlActor;verticalLabelPosition=bottom;verticalAlign=top;html=1;outlineConnect=0;" vertex="1" parent="i_-3oUF3Cd-55Z9TrqPK-67">
          <mxGeometry x="80" width="30" height="60" as="geometry" />
        </mxCell>
        <mxCell id="i_-3oUF3Cd-55Z9TrqPK-62" value="Researcher" style="shape=umlActor;verticalLabelPosition=bottom;verticalAlign=top;html=1;outlineConnect=0;" vertex="1" parent="i_-3oUF3Cd-55Z9TrqPK-67">
          <mxGeometry x="160" width="30" height="60" as="geometry" />
        </mxCell>
        <mxCell id="i_-3oUF3Cd-55Z9TrqPK-63" value="Student" style="shape=umlActor;verticalLabelPosition=bottom;verticalAlign=top;html=1;outlineConnect=0;" vertex="1" parent="i_-3oUF3Cd-55Z9TrqPK-67">
          <mxGeometry width="30" height="60" as="geometry" />
        </mxCell>
        <mxCell id="i_-3oUF3Cd-55Z9TrqPK-69" value="Registration System" style="shape=note;strokeWidth=2;fontSize=14;size=20;whiteSpace=wrap;html=1;fillColor=#fff2cc;strokeColor=#d6b656;fontColor=#666600;" vertex="1" parent="1">
          <mxGeometry x="-123" y="1160" width="110.00000000000001" height="80" as="geometry" />
        </mxCell>
        <mxCell id="i_-3oUF3Cd-55Z9TrqPK-99" style="edgeStyle=none;shape=connector;rounded=0;orthogonalLoop=1;jettySize=auto;html=1;entryX=0;entryY=1;entryDx=0;entryDy=0;labelBackgroundColor=default;strokeColor=default;align=center;verticalAlign=middle;fontFamily=Helvetica;fontSize=11;fontColor=default;endArrow=none;endFill=0;elbow=vertical;" edge="1" parent="1" source="i_-3oUF3Cd-55Z9TrqPK-72" target="i_-3oUF3Cd-55Z9TrqPK-35">
          <mxGeometry relative="1" as="geometry" />
        </mxCell>
        <mxCell id="i_-3oUF3Cd-55Z9TrqPK-100" style="edgeStyle=none;shape=connector;rounded=0;orthogonalLoop=1;jettySize=auto;html=1;entryX=0;entryY=1;entryDx=0;entryDy=0;labelBackgroundColor=default;strokeColor=default;align=center;verticalAlign=middle;fontFamily=Helvetica;fontSize=11;fontColor=default;endArrow=none;endFill=0;elbow=vertical;" edge="1" parent="1" source="i_-3oUF3Cd-55Z9TrqPK-72" target="i_-3oUF3Cd-55Z9TrqPK-40">
          <mxGeometry relative="1" as="geometry" />
        </mxCell>
        <mxCell id="i_-3oUF3Cd-55Z9TrqPK-101" style="edgeStyle=none;shape=connector;rounded=0;orthogonalLoop=1;jettySize=auto;html=1;entryX=0;entryY=0.5;entryDx=0;entryDy=0;labelBackgroundColor=default;strokeColor=default;align=center;verticalAlign=middle;fontFamily=Helvetica;fontSize=11;fontColor=default;endArrow=none;endFill=0;elbow=vertical;" edge="1" parent="1" source="i_-3oUF3Cd-55Z9TrqPK-72" target="i_-3oUF3Cd-55Z9TrqPK-97">
          <mxGeometry relative="1" as="geometry" />
        </mxCell>
        <mxCell id="i_-3oUF3Cd-55Z9TrqPK-72" value="Manager" style="shape=umlActor;verticalLabelPosition=bottom;verticalAlign=top;html=1;outlineConnect=0;" vertex="1" parent="1">
          <mxGeometry x="-616" y="1696.5" width="30" height="60" as="geometry" />
        </mxCell>
        <mxCell id="i_-3oUF3Cd-55Z9TrqPK-89" style="edgeStyle=none;shape=connector;rounded=0;orthogonalLoop=1;jettySize=auto;html=1;entryX=0;entryY=1;entryDx=0;entryDy=0;labelBackgroundColor=default;strokeColor=default;align=center;verticalAlign=middle;fontFamily=Helvetica;fontSize=11;fontColor=default;endArrow=none;endFill=0;elbow=vertical;" edge="1" parent="1" source="i_-3oUF3Cd-55Z9TrqPK-74" target="i_-3oUF3Cd-55Z9TrqPK-39">
          <mxGeometry relative="1" as="geometry" />
        </mxCell>
        <mxCell id="i_-3oUF3Cd-55Z9TrqPK-74" value="Instructor" style="shape=umlActor;verticalLabelPosition=bottom;verticalAlign=top;html=1;outlineConnect=0;" vertex="1" parent="1">
          <mxGeometry x="-616" y="1366" width="30" height="60" as="geometry" />
        </mxCell>
        <mxCell id="i_-3oUF3Cd-55Z9TrqPK-80" style="rounded=0;orthogonalLoop=1;jettySize=auto;html=1;elbow=vertical;endArrow=none;endFill=0;" edge="1" parent="1" source="i_-3oUF3Cd-55Z9TrqPK-76" target="i_-3oUF3Cd-55Z9TrqPK-40">
          <mxGeometry relative="1" as="geometry" />
        </mxCell>
        <mxCell id="i_-3oUF3Cd-55Z9TrqPK-82" style="edgeStyle=none;shape=connector;rounded=0;orthogonalLoop=1;jettySize=auto;html=1;entryX=0;entryY=0.5;entryDx=0;entryDy=0;labelBackgroundColor=default;strokeColor=default;align=center;verticalAlign=middle;fontFamily=Helvetica;fontSize=11;fontColor=default;endArrow=none;endFill=0;elbow=vertical;" edge="1" parent="1" source="i_-3oUF3Cd-55Z9TrqPK-76" target="i_-3oUF3Cd-55Z9TrqPK-35">
          <mxGeometry relative="1" as="geometry" />
        </mxCell>
        <mxCell id="i_-3oUF3Cd-55Z9TrqPK-86" style="edgeStyle=none;shape=connector;rounded=0;orthogonalLoop=1;jettySize=auto;html=1;entryX=0;entryY=1;entryDx=0;entryDy=0;labelBackgroundColor=default;strokeColor=default;align=center;verticalAlign=middle;fontFamily=Helvetica;fontSize=11;fontColor=default;endArrow=none;endFill=0;elbow=vertical;" edge="1" parent="1" source="i_-3oUF3Cd-55Z9TrqPK-76" target="i_-3oUF3Cd-55Z9TrqPK-37">
          <mxGeometry relative="1" as="geometry" />
        </mxCell>
        <mxCell id="i_-3oUF3Cd-55Z9TrqPK-76" value="Student" style="shape=umlActor;verticalLabelPosition=bottom;verticalAlign=top;html=1;outlineConnect=0;" vertex="1" parent="1">
          <mxGeometry x="-616" y="1531" width="30" height="60" as="geometry" />
        </mxCell>
        <mxCell id="i_-3oUF3Cd-55Z9TrqPK-87" style="edgeStyle=none;shape=connector;rounded=0;orthogonalLoop=1;jettySize=auto;html=1;entryX=0.5;entryY=0;entryDx=0;entryDy=0;entryPerimeter=0;labelBackgroundColor=default;strokeColor=default;align=center;verticalAlign=middle;fontFamily=Helvetica;fontSize=11;fontColor=default;endArrow=block;endFill=0;elbow=vertical;" edge="1" parent="1" source="i_-3oUF3Cd-55Z9TrqPK-74" target="i_-3oUF3Cd-55Z9TrqPK-76">
          <mxGeometry relative="1" as="geometry">
            <mxPoint x="-745" y="1690" as="sourcePoint" />
          </mxGeometry>
        </mxCell>
        <mxCell id="i_-3oUF3Cd-55Z9TrqPK-94" style="shape=connector;rounded=0;orthogonalLoop=1;jettySize=auto;html=1;entryX=0.5;entryY=0;entryDx=0;entryDy=0;entryPerimeter=0;labelBackgroundColor=default;strokeColor=default;align=center;verticalAlign=middle;fontFamily=Helvetica;fontSize=11;fontColor=default;endArrow=block;endFill=0;elbow=vertical;edgeStyle=orthogonalEdgeStyle;" edge="1" parent="1" source="i_-3oUF3Cd-55Z9TrqPK-71" target="i_-3oUF3Cd-55Z9TrqPK-74">
          <mxGeometry relative="1" as="geometry">
            <Array as="points">
              <mxPoint x="-456" y="1310" />
              <mxPoint x="-601" y="1310" />
            </Array>
          </mxGeometry>
        </mxCell>
        <mxCell id="i_-3oUF3Cd-55Z9TrqPK-95" style="shape=connector;rounded=0;orthogonalLoop=1;jettySize=auto;html=1;entryX=0.5;entryY=0;entryDx=0;entryDy=0;entryPerimeter=0;labelBackgroundColor=default;strokeColor=default;align=center;verticalAlign=middle;fontFamily=Helvetica;fontSize=11;fontColor=default;endArrow=block;endFill=0;elbow=vertical;edgeStyle=orthogonalEdgeStyle;" edge="1" parent="1" source="i_-3oUF3Cd-55Z9TrqPK-70" target="i_-3oUF3Cd-55Z9TrqPK-74">
          <mxGeometry relative="1" as="geometry" />
        </mxCell>
        <mxCell id="i_-3oUF3Cd-55Z9TrqPK-96" style="shape=connector;rounded=0;orthogonalLoop=1;jettySize=auto;html=1;entryX=0.5;entryY=0;entryDx=0;entryDy=0;entryPerimeter=0;labelBackgroundColor=default;strokeColor=default;align=center;verticalAlign=middle;fontFamily=Helvetica;fontSize=11;fontColor=default;endArrow=block;endFill=0;elbow=vertical;edgeStyle=orthogonalEdgeStyle;" edge="1" parent="1" source="i_-3oUF3Cd-55Z9TrqPK-75" target="i_-3oUF3Cd-55Z9TrqPK-74">
          <mxGeometry relative="1" as="geometry">
            <Array as="points">
              <mxPoint x="-746" y="1310" />
              <mxPoint x="-601" y="1310" />
            </Array>
          </mxGeometry>
        </mxCell>
        <mxCell id="i_-3oUF3Cd-55Z9TrqPK-97" value="Create Account" style="ellipse;whiteSpace=wrap;html=1;fontSize=16;fontStyle=1;flipV=0;" vertex="1" parent="1">
          <mxGeometry x="-300" y="1691.5" width="140" height="70" as="geometry" />
        </mxCell>
        <mxCell id="i_-3oUF3Cd-55Z9TrqPK-104" value="" style="group" vertex="1" connectable="0" parent="1">
          <mxGeometry x="-761" y="1200" width="320" height="60" as="geometry" />
        </mxCell>
        <mxCell id="i_-3oUF3Cd-55Z9TrqPK-70" value="Academic Supervisor" style="shape=umlActor;verticalLabelPosition=bottom;verticalAlign=top;html=1;outlineConnect=0;" vertex="1" parent="i_-3oUF3Cd-55Z9TrqPK-104">
          <mxGeometry x="145" width="30" height="60" as="geometry" />
        </mxCell>
        <mxCell id="i_-3oUF3Cd-55Z9TrqPK-71" value="Academic Manager" style="shape=umlActor;verticalLabelPosition=bottom;verticalAlign=top;html=1;outlineConnect=0;" vertex="1" parent="i_-3oUF3Cd-55Z9TrqPK-104">
          <mxGeometry x="290" width="30" height="60" as="geometry" />
        </mxCell>
        <mxCell id="i_-3oUF3Cd-55Z9TrqPK-75" value="Researcher" style="shape=umlActor;verticalLabelPosition=bottom;verticalAlign=top;html=1;outlineConnect=0;" vertex="1" parent="i_-3oUF3Cd-55Z9TrqPK-104">
          <mxGeometry width="30" height="60" as="geometry" />
        </mxCell>
      </root>
    </mxGraphModel>
  </diagram>
</mxfile>
